<?xml version="1.0" standalone="no"?>
<!DOCTYPE svg PUBLIC "-//W3C//DTD SVG 20010904//EN"
 "http://www.w3.org/TR/2001/REC-SVG-20010904/DTD/svg10.dtd">
<svg version="1.0" xmlns="http://www.w3.org/2000/svg"
 width="512.000000pt" height="512.000000pt" viewBox="0 0 512.000000 512.000000"
 preserveAspectRatio="xMidYMid meet">
<metadata>
Created by potrace 1.14, written by Peter Selinger 2001-2017
</metadata>
<g transform="translate(0.000000,512.000000) scale(0.100000,-0.100000)"
fill="#000000" stroke="none">
<path d="M4613 4348 c-23 -11 -53 -64 -53 -95 0 -28 27 -62 127 -161 l92 -92
-397 1 c-664 0 -597 3 -632 -28 -34 -32 -43 -76 -24 -115 27 -53 23 -53 552
-58 l492 -5 -85 -85 c-133 -133 -150 -173 -97 -230 34 -37 84 -47 121 -24 14
10 110 102 213 205 202 203 217 225 184 285 -18 34 -370 386 -403 403 -26 13
-61 13 -90 -1z"/>
<path d="M2409 4247 c-20 -8 -79 -45 -130 -84 -140 -104 -224 -150 -400 -218
-123 -49 -178 -78 -268 -143 -111 -81 -191 -168 -331 -362 -111 -152 -186
-216 -298 -250 -81 -25 -78 -25 -90 9 -6 16 -23 38 -38 48 -25 16 -58 18 -402
18 -340 0 -377 -1 -404 -17 -15 -10 -33 -30 -38 -44 -7 -17 -9 -431 -8 -1160
l3 -1134 28 -27 27 -28 389 0 389 0 25 23 c14 13 28 35 31 48 4 13 12 21 19
19 6 -2 30 -6 52 -9 57 -8 171 -33 234 -52 30 -9 62 -17 70 -19 9 -2 59 -15
111 -29 264 -72 242 -70 835 -73 458 -3 550 -1 604 12 202 48 355 196 406 392
17 64 20 181 7 228 -8 27 -4 35 43 86 107 116 158 305 121 447 l-13 53 39 42
c86 94 137 252 124 384 l-7 63 88 1 c98 1 313 6 563 12 91 3 185 10 210 17
188 51 303 204 296 393 -7 157 -109 290 -267 347 -52 18 -90 19 -1043 20 -544
0 -991 2 -993 4 -2 2 21 23 53 47 166 127 210 168 254 232 97 142 126 310 79
456 -31 96 -120 204 -196 237 -52 22 -131 27 -174 11z"/>
</g>
</svg>
